<svg xmlns="http://www.w3.org/2000/svg" xmlns:xlink="http://www.w3.org/1999/xlink" contentStyleType="text/css" height="332px" preserveAspectRatio="none" style="width:531px;height:332px;background:#FFFFFF;" version="1.1" viewBox="0 0 531 332" width="531px" zoomAndPan="magnify"><defs/><g><!--entity CPP--><g id="elem_CPP"><rect fill="#FDFEFE" height="47.5977" rx="2.5" ry="2.5" style="stroke:#888888;stroke-width:0.5;" width="82.0332" x="331.5" y="7"/><text fill="#000000" font-family="Arial" font-size="12" font-style="italic" lengthAdjust="spacing" textLength="49.3594" x="347.8369" y="28.2559">&#171;artifact&#187;</text><text fill="#000000" font-family="Arial" font-size="12" font-style="italic" lengthAdjust="spacing" textLength="62.0332" x="341.5" y="42.0547">C++ source</text></g><!--entity REN--><g id="elem_REN"><rect fill="#D6EAF8" height="47.5977" rx="2.5" ry="2.5" style="stroke:#2980B9;stroke-width:0.5;" width="164.7617" x="220" y="129"/><text fill="#1A5276" font-family="Arial" font-size="12" font-style="italic" lengthAdjust="spacing" textLength="32.6953" x="286.0332" y="150.2559">&#171;tool&#187;</text><text fill="#1A5276" font-family="Arial" font-size="12" lengthAdjust="spacing" textLength="144.7617" x="230" y="164.0547">Renaissance-based tooling</text></g><!--entity Human--><g id="elem_Human"><ellipse cx="451.5654" cy="123.5" fill="#F1F1F1" rx="8" ry="8" style="stroke:#181818;stroke-width:0.5;"/><path d="M451.5654,131.5 L451.5654,158.5 M438.5654,139.5 L464.5654,139.5 M451.5654,158.5 L438.5654,173.5 M451.5654,158.5 L464.5654,173.5 " fill="none" style="stroke:#181818;stroke-width:0.5;"/><text fill="#000000" font-family="Arial" font-size="14" lengthAdjust="spacing" textLength="45.1309" x="429" y="188.1318">Human</text></g><!--entity Human1--><g id="elem_Human1"><ellipse cx="187.5654" cy="259.5" fill="#F1F1F1" rx="8" ry="8" style="stroke:#181818;stroke-width:0.5;"/><path d="M187.5654,267.5 L187.5654,294.5 M174.5654,275.5 L200.5654,275.5 M187.5654,294.5 L174.5654,309.5 M187.5654,294.5 L200.5654,309.5 " fill="none" style="stroke:#181818;stroke-width:0.5;"/><text fill="#000000" font-family="Arial" font-size="14" lengthAdjust="spacing" textLength="45.1309" x="165" y="324.1318">Human</text></g><!--entity EXCAL--><g id="elem_EXCAL"><rect fill="#FDFEFE" height="47.5977" rx="2.5" ry="2.5" style="stroke:#888888;stroke-width:0.5;" width="130.707" x="395" y="265"/><text fill="#000000" font-family="Arial" font-size="12" font-style="italic" lengthAdjust="spacing" textLength="49.3594" x="435.6738" y="286.2559">&#171;artifact&#187;</text><text fill="#000000" font-family="Arial" font-size="12" font-style="italic" lengthAdjust="spacing" textLength="110.707" x="405" y="300.0547">Excalidraw diagrams</text></g><!--entity GTIN--><g id="elem_GTIN"><rect fill="#FDFEFE" height="47.5977" rx="2.5" ry="2.5" style="stroke:#888888;stroke-width:0.5;" width="123.3945" x="7" y="265"/><text fill="#000000" font-family="Arial" font-size="12" font-style="italic" lengthAdjust="spacing" textLength="49.3594" x="44.0176" y="286.2559">&#171;artifact&#187;</text><text fill="#000000" font-family="Arial" font-size="12" font-style="italic" lengthAdjust="spacing" textLength="103.3945" x="17" y="300.0547">gt_interactions.json</text></g><!--entity GTSEQ--><g id="elem_GTSEQ"><rect fill="#FDFEFE" height="47.5977" rx="2.5" ry="2.5" style="stroke:#888888;stroke-width:0.5;" width="114.0723" x="245.5" y="265"/><text fill="#000000" font-family="Arial" font-size="12" font-style="italic" lengthAdjust="spacing" textLength="49.3594" x="277.8564" y="286.2559">&#171;artifact&#187;</text><text fill="#000000" font-family="Arial" font-size="12" font-style="italic" lengthAdjust="spacing" textLength="94.0723" x="255.5" y="300.0547">gt_sequence.json</text></g><!--link CPP to REN--><g id="link_CPP_REN"><path d="M359,55.14 C346.61,76.39 331.3635,102.5275 318.9835,123.7475 " fill="none" id="CPP-to-REN" style="stroke:#444444;stroke-width:1;"/><polygon fill="#444444" points="315.96,128.93,323.9503,123.1719,318.4796,124.6113,317.0403,119.1406,315.96,128.93" style="stroke:#444444;stroke-width:1;"/></g><!--link CPP to Human--><g id="link_CPP_Human"><path d="M387.73,55.14 C399.39,72.84 412.349,92.5397 425.539,112.5597 " fill="none" id="CPP-to-Human" style="stroke:#444444;stroke-width:1;"/><polygon fill="#444444" points="428.84,117.57,427.2287,107.8538,426.0892,113.3947,420.5483,112.2552,428.84,117.57" style="stroke:#444444;stroke-width:1;"/></g><!--link Human to EXCAL--><g id="link_Human_EXCAL"><path d="M454.01,191.33 C455.59,214.87 457.1772,238.5535 458.5372,258.7635 " fill="none" id="Human-to-EXCAL" style="stroke:#444444;stroke-width:1;"/><polygon fill="#444444" points="458.94,264.75,462.3267,255.5017,458.6043,259.7613,454.3448,256.0389,458.94,264.75" style="stroke:#444444;stroke-width:1;"/></g><!--link REN to GTIN--><g id="link_REN_GTIN"><path d="M262.27,177.04 C219.41,201.58 157.1468,237.2385 114.1868,261.8385 " fill="none" id="REN-to-GTIN" style="stroke:#444444;stroke-width:1;"/><polygon fill="#444444" points="108.98,264.82,118.7778,263.8189,113.319,262.3354,114.8025,256.8765,108.98,264.82" style="stroke:#444444;stroke-width:1;"/></g><!--link REN to GTSEQ--><g id="link_REN_GTSEQ"><path d="M302.5,177.04 C302.5,201.58 302.5,234.22 302.5,258.82 " fill="none" id="REN-to-GTSEQ" style="stroke:#444444;stroke-width:1;"/><polygon fill="#444444" points="302.5,264.82,306.5,255.82,302.5,259.82,298.5,255.82,302.5,264.82" style="stroke:#444444;stroke-width:1;"/></g><!--reverse link GTIN to Human1--><g id="link_GTIN_Human1"><path d="M136.32,289 C147.79,289 153.25,289 164.72,289 " fill="none" id="GTIN-backto-Human1" style="stroke:#444444;stroke-width:1;"/><polygon fill="#444444" points="130.32,289,139.32,293,135.32,289,139.32,285,130.32,289" style="stroke:#444444;stroke-width:1;"/></g><!--link Human1 to GTSEQ--><g id="link_Human1_GTSEQ"><path d="M210.41,289 C222.04,289 227.67,289 239.3,289 " fill="none" id="Human1-to-GTSEQ" style="stroke:#444444;stroke-width:1;"/><polygon fill="#444444" points="245.3,289,236.3,285,240.3,289,236.3,293,245.3,289" style="stroke:#444444;stroke-width:1;"/></g><!--SRC=[bPDDZvim48Rl_0ehUrob2eGGa5QH-31jfIhQRdhehNB08UuIExK7fMcr_xt6IH0B0QbpG33Zb-UrPwnU6JyIIGveIxBNGegAvx4eXKIdFGDggQQUqnsfIaW5XpKvK1HAHifMFPHId2xI1zT4goXf1eGN9Qtb6_Q78jjfbRc0LiMsxYcVdlRLWV3L2lsra8weu_SXJN2Kp2ur8NCghtdiBR7Zc7pDk6QNlkje3s_tKI14EKnAF1ocVf_a1Fui2heaErmuIs-8H2Im7SbWR5yfJd6VvfjeQ1iubnGn82NBXc2Pu3jMZA027E6mZufdyy29kXlpN1lRtdyP-5LHUHxXO-rWsUUdyo2s-orCF6_c3w6EPzYBaN595ka2p_ii6_kkEzn42yGHWK1R0I3qhM0raWbk6KN3HvFuyH4fKScCJj2xDXE5ukVdxl8NoWbJYl2CJhT4qHpLCyXuKQkluwYLBtXjbFfNsjRaKtqb9dN1l8sKx2uG_yvqft99JdeJfD2df_f6yVSu_6BLeIsZQIvEVBeo9jhV5xPvDhcRiaCju0VZG2KnXwO-_5I2zx4VltrUtr4ggkT77z2WQeE_8itK_XeVvbVl4thLnQoDfYNTmMtLBITPiOTcvJy0]--></g></svg>