<svg xmlns="http://www.w3.org/2000/svg" xmlns:xlink="http://www.w3.org/1999/xlink" contentStyleType="text/css" height="635px" preserveAspectRatio="none" style="width:1495px;height:635px;" version="1.1" viewBox="0 0 1495 635" width="1495px" zoomAndPan="magnify"><defs/><g><!--cluster Phase 1 ? Static Analysis (Renaissance)--><g id="cluster_Phase 1 &#8212; Static Analysis (Renaissance)"><path d="M110.5,6 L384.623,6 A3.75,3.75 0 0 1 387.123,8.5 L394.123,28.0986 L626.5,28.0986 A2.5,2.5 0 0 1 629,30.5986 L629,275.5 A2.5,2.5 0 0 1 626.5,278 L110.5,278 A2.5,2.5 0 0 1 108,275.5 L108,8.5 A2.5,2.5 0 0 1 110.5,6 " fill="#FEF9E7" style="stroke:#000000;stroke-width:1.5;"/><line style="stroke:#000000;stroke-width:1.5;" x1="108" x2="394.123" y1="28.0986" y2="28.0986"/><text fill="#000000" font-family="Arial" font-size="14" font-weight="bold" lengthAdjust="spacing" textLength="273.123" x="112" y="21.1318">Phase 1 &#8212; Static Analysis (Renaissance)</text></g><!--cluster Phase 2 ? Guided Instrumentation (clang-exp)--><g id="cluster_Phase 2 &#8212; Guided Instrumentation (clang-exp)"><path d="M655.5,6 L967.6582,6 A3.75,3.75 0 0 1 970.1582,8.5 L977.1582,28.0986 L977.5,28.0986 A2.5,2.5 0 0 1 980,30.5986 L980,115.5 A2.5,2.5 0 0 1 977.5,118 L655.5,118 A2.5,2.5 0 0 1 653,115.5 L653,8.5 A2.5,2.5 0 0 1 655.5,6 " fill="#E8F8F5" style="stroke:#000000;stroke-width:1.5;"/><line style="stroke:#000000;stroke-width:1.5;" x1="653" x2="977.1582" y1="28.0986" y2="28.0986"/><text fill="#000000" font-family="Arial" font-size="14" font-weight="bold" lengthAdjust="spacing" textLength="311.1582" x="657" y="21.1318">Phase 2 &#8212; Guided Instrumentation (clang-exp)</text></g><!--cluster Phase 3 ? LLM Synthesis--><g id="cluster_Phase 3 &#8212; LLM Synthesis"><path d="M965.5,166 L1139.9961,166 A3.75,3.75 0 0 1 1142.4961,168.5 L1149.4961,188.0986 L1248.5,188.0986 A2.5,2.5 0 0 1 1251,190.5986 L1251,275.5 A2.5,2.5 0 0 1 1248.5,278 L965.5,278 A2.5,2.5 0 0 1 963,275.5 L963,168.5 A2.5,2.5 0 0 1 965.5,166 " fill="#FDF2F8" style="stroke:#000000;stroke-width:1.5;"/><line style="stroke:#000000;stroke-width:1.5;" x1="963" x2="1149.4961" y1="188.0986" y2="188.0986"/><text fill="#000000" font-family="Arial" font-size="14" font-weight="bold" lengthAdjust="spacing" textLength="173.4961" x="967" y="181.1318">Phase 3 &#8212; LLM Synthesis</text></g><!--cluster Phase 4 ? SysML v2 \nGeneration--><g id="cluster_Phase 4 &#8212; SysML v2 \nGeneration"><path d="M1210.5,420 L1354.6787,420 A3.75,3.75 0 0 1 1357.1787,422.5 L1364.1787,458.1973 L1364.5,458.1973 A2.5,2.5 0 0 1 1367,460.6973 L1367,532.5 A2.5,2.5 0 0 1 1364.5,535 L1210.5,535 A2.5,2.5 0 0 1 1208,532.5 L1208,422.5 A2.5,2.5 0 0 1 1210.5,420 " fill="#EBF5FB" style="stroke:#000000;stroke-width:1.5;"/><line style="stroke:#000000;stroke-width:1.5;" x1="1208" x2="1364.1787" y1="458.1973" y2="458.1973"/><text fill="#000000" font-family="Arial" font-size="14" font-weight="bold" lengthAdjust="spacing" textLength="139.2891" x="1212" y="435.1318">Phase 4 &#8212; SysML v2</text><text fill="#000000" font-family="Arial" font-size="14" font-weight="bold" lengthAdjust="spacing" textLength="73.9033" x="1246.6377" y="451.2305">Generation</text></g><!--entity REN--><g id="elem_REN"><rect fill="#D6EAF8" height="47.5977" rx="2.5" ry="2.5" style="stroke:#2980B9;stroke-width:0.5;" width="89.375" x="124.5" y="47.5"/><text fill="#1A5276" font-family="Arial" font-size="12" font-style="italic" lengthAdjust="spacing" textLength="32.6953" x="152.8398" y="68.7559">&#171;tool&#187;</text><text fill="#1A5276" font-family="Arial" font-size="12" lengthAdjust="spacing" textLength="69.375" x="134.5" y="82.5547">Renaissance</text></g><!--entity NEO--><g id="elem_NEO"><path d="M249,51 C249,41 294.0273,41 294.0273,41 C294.0273,41 339.0547,41 339.0547,51 L339.0547,92.1973 C339.0547,102.1973 294.0273,102.1973 294.0273,102.1973 C294.0273,102.1973 249,102.1973 249,92.1973 L249,51 " fill="#F1F1F1" style="stroke:#181818;stroke-width:0.5;"/><path d="M249,51 C249,61 294.0273,61 294.0273,61 C294.0273,61 339.0547,61 339.0547,51 " fill="none" style="stroke:#181818;stroke-width:0.5;"/><text fill="#000000" font-family="Arial" font-size="14" lengthAdjust="spacing" textLength="36.5791" x="259" y="78.1318">Neo4j</text><text fill="#000000" font-family="Arial" font-size="14" lengthAdjust="spacing" textLength="70.0547" x="259" y="94.2305">code graph</text></g><!--entity CYPHER--><g id="elem_CYPHER"><rect fill="#FEF9E7" height="61.3965" rx="2.5" ry="2.5" style="stroke:#F39C12;stroke-width:0.5;" width="164.0586" x="449" y="41"/><text fill="#7D6608" font-family="Arial" font-size="12" font-style="italic" lengthAdjust="spacing" textLength="43.3652" x="509.3467" y="62.2559">&#171;query&#187;</text><text fill="#7D6608" font-family="Arial" font-size="12" lengthAdjust="spacing" textLength="77.3789" x="459" y="76.0547">Cypher: global</text><text fill="#7D6608" font-family="Arial" font-size="12" lengthAdjust="spacing" textLength="144.0586" x="459" y="89.8535">cross-component CppCalls</text></g><!--entity TRAV--><g id="elem_TRAV"><rect fill="#FEF9E7" height="61.3965" rx="2.5" ry="2.5" style="stroke:#F39C12;stroke-width:0.5;" width="183.4063" x="372.5" y="201"/><text fill="#7D6608" font-family="Arial" font-size="12" font-style="italic" lengthAdjust="spacing" textLength="43.3652" x="442.5205" y="222.2559">&#171;query&#187;</text><text fill="#7D6608" font-family="Arial" font-size="12" lengthAdjust="spacing" textLength="133.4004" x="382.5" y="236.0547">Cypher: scenario-scoped</text><text fill="#7D6608" font-family="Arial" font-size="12" lengthAdjust="spacing" textLength="163.4063" x="382.5" y="249.8535">CppCalls* 1..6 hops from entry</text></g><!--entity CLANGEXP--><g id="elem_CLANGEXP"><rect fill="#D6EAF8" height="61.3965" rx="2.5" ry="2.5" style="stroke:#2980B9;stroke-width:0.5;" width="144.0723" x="743" y="41"/><text fill="#1A5276" font-family="Arial" font-size="12" font-style="italic" lengthAdjust="spacing" textLength="32.6953" x="798.6885" y="62.2559">&#171;tool&#187;</text><text fill="#1A5276" font-family="Arial" font-size="12" lengthAdjust="spacing" textLength="124.0723" x="753" y="76.0547">Guided instrumentation</text><text fill="#1A5276" font-family="Arial" font-size="12" lengthAdjust="spacing" textLength="60.0234" x="753" y="89.8535">(clang-exp)</text></g><!--entity TAG--><g id="elem_TAG"><rect fill="#D6EAF8" height="47.5977" rx="2.5" ry="2.5" style="stroke:#2980B9;stroke-width:0.5;" width="117.4121" x="979.5" y="207.5"/><text fill="#1A5276" font-family="Arial" font-size="12" font-style="italic" lengthAdjust="spacing" textLength="32.6953" x="1021.8584" y="228.7559">&#171;tool&#187;</text><text fill="#1A5276" font-family="Arial" font-size="12" lengthAdjust="spacing" textLength="97.4121" x="989.5" y="242.5547">Union and tagging</text></g><!--entity LLM--><g id="elem_LLM"><rect fill="#D6EAF8" height="61.3965" rx="2.5" ry="2.5" style="stroke:#2980B9;stroke-width:0.5;" width="103.3672" x="1131.5" y="201"/><text fill="#1A5276" font-family="Arial" font-size="12" font-style="italic" lengthAdjust="spacing" textLength="32.6953" x="1166.8359" y="222.2559">&#171;tool&#187;</text><text fill="#1A5276" font-family="Arial" font-size="12" lengthAdjust="spacing" textLength="76.6992" x="1141.5" y="236.0547">LLM synthesis</text><text fill="#1A5276" font-family="Arial" font-size="12" lengthAdjust="spacing" textLength="83.3672" x="1141.5" y="249.8535">(Azure OpenAI)</text></g><!--entity GENSYSML--><g id="elem_GENSYSML"><rect fill="#D6EAF8" height="47.5977" rx="2.5" ry="2.5" style="stroke:#2980B9;stroke-width:0.5;" width="93.3652" x="1226.5" y="471"/><text fill="#1A5276" font-family="Arial" font-size="12" font-style="italic" lengthAdjust="spacing" textLength="32.6953" x="1256.835" y="492.2559">&#171;tool&#187;</text><text fill="#1A5276" font-family="Arial" font-size="12" lengthAdjust="spacing" textLength="73.3652" x="1236.5" y="506.0547">gen_sysml.py</text></g><!--entity CPP--><g id="elem_CPP"><rect fill="#FDFEFE" height="47.5977" rx="2.5" ry="2.5" style="stroke:#888888;stroke-width:0.5;" width="82.0332" x="7" y="47.5"/><text fill="#000000" font-family="Arial" font-size="12" font-style="italic" lengthAdjust="spacing" textLength="49.3594" x="23.3369" y="68.7559">&#171;artifact&#187;</text><text fill="#000000" font-family="Arial" font-size="12" font-style="italic" lengthAdjust="spacing" textLength="62.0332" x="17" y="82.5547">C++ source</text></g><!--entity SRC--><g id="elem_SRC"><rect fill="#FDFEFE" height="47.5977" rx="2.5" ry="2.5" style="stroke:#888888;stroke-width:0.5;" width="120.0664" x="1123" y="47.5"/><text fill="#000000" font-family="Arial" font-size="12" font-style="italic" lengthAdjust="spacing" textLength="49.3594" x="1158.3535" y="68.7559">&#171;artifact&#187;</text><text fill="#000000" font-family="Arial" font-size="12" font-style="italic" lengthAdjust="spacing" textLength="100.0664" x="1133" y="82.5547">C++ code snippets</text></g><!--entity C2OUT--><g id="elem_C2OUT"><rect fill="#FDFEFE" height="47.5977" rx="2.5" ry="2.5" style="stroke:#888888;stroke-width:0.5;" width="114.7109" x="736.5" y="207.5"/><text fill="#000000" font-family="Arial" font-size="12" font-style="italic" lengthAdjust="spacing" textLength="49.3594" x="769.1758" y="228.7559">&#171;artifact&#187;</text><text fill="#000000" font-family="Arial" font-size="12" font-style="italic" lengthAdjust="spacing" textLength="94.7109" x="746.5" y="242.5547">Static interactions</text></g><!--entity SLICE--><g id="elem_SLICE"><rect fill="#FDFEFE" height="47.5977" rx="2.5" ry="2.5" style="stroke:#888888;stroke-width:0.5;" width="88.707" x="996.5" y="47.5"/><text fill="#000000" font-family="Arial" font-size="12" font-style="italic" lengthAdjust="spacing" textLength="49.3594" x="1016.1738" y="68.7559">&#171;artifact&#187;</text><text fill="#000000" font-family="Arial" font-size="12" font-style="italic" lengthAdjust="spacing" textLength="68.707" x="1006.5" y="82.5547">Guided trace</text></g><!--entity INTR--><g id="elem_INTR"><rect fill="#FDFEFE" height="47.5977" rx="2.5" ry="2.5" style="stroke:#888888;stroke-width:0.5;" width="106.7129" x="1084.5" y="471"/><text fill="#000000" font-family="Arial" font-size="12" font-style="italic" lengthAdjust="spacing" textLength="49.3594" x="1113.1768" y="492.2559">&#171;artifact&#187;</text><text fill="#000000" font-family="Arial" font-size="12" font-style="italic" lengthAdjust="spacing" textLength="86.7129" x="1094.5" y="506.0547">interactions.json</text></g><!--entity SEQ--><g id="elem_SEQ"><rect fill="#FDFEFE" height="47.5977" rx="2.5" ry="2.5" style="stroke:#888888;stroke-width:0.5;" width="97.3906" x="1204.5" y="325"/><text fill="#000000" font-family="Arial" font-size="12" font-style="italic" lengthAdjust="spacing" textLength="49.3594" x="1228.5156" y="346.2559">&#171;artifact&#187;</text><text fill="#000000" font-family="Arial" font-size="12" font-style="italic" lengthAdjust="spacing" textLength="77.3906" x="1214.5" y="360.0547">sequence.json</text></g><!--entity ISYSML--><g id="elem_ISYSML"><rect fill="#FDFEFE" height="47.5977" rx="2.5" ry="2.5" style="stroke:#888888;stroke-width:0.5;" width="115.3613" x="1147.5" y="582"/><text fill="#000000" font-family="Arial" font-size="12" font-style="italic" lengthAdjust="spacing" textLength="44.0098" x="1183.1758" y="603.2559">&#171;sysml&#187;</text><text fill="#000000" font-family="Arial" font-size="12" font-style="italic" lengthAdjust="spacing" textLength="95.3613" x="1157.5" y="617.0547">interactions.sysml</text></g><!--entity SSYSML--><g id="elem_SSYSML"><rect fill="#FDFEFE" height="47.5977" rx="2.5" ry="2.5" style="stroke:#888888;stroke-width:0.5;" width="106.0391" x="1383" y="471"/><text fill="#000000" font-family="Arial" font-size="12" font-style="italic" lengthAdjust="spacing" textLength="44.0098" x="1414.0146" y="492.2559">&#171;sysml&#187;</text><text fill="#000000" font-family="Arial" font-size="12" font-style="italic" lengthAdjust="spacing" textLength="86.0391" x="1393" y="506.0547">sequence.sysml</text></g><!--entity VSYSML--><g id="elem_VSYSML"><rect fill="#FDFEFE" height="47.5977" rx="2.5" ry="2.5" style="stroke:#888888;stroke-width:0.5;" width="84.002" x="1298" y="582"/><text fill="#000000" font-family="Arial" font-size="12" font-style="italic" lengthAdjust="spacing" textLength="44.0098" x="1317.9961" y="603.2559">&#171;sysml&#187;</text><text fill="#000000" font-family="Arial" font-size="12" font-style="italic" lengthAdjust="spacing" textLength="64.002" x="1308" y="617.0547">views.sysml</text></g><!--link CPP to REN--><g id="link_CPP_REN"><path d="M89.12,71.5 C100.87,71.5 106.63,71.5 118.38,71.5 " fill="none" id="CPP-to-REN" style="stroke:#444444;stroke-width:1;"/><polygon fill="#444444" points="124.38,71.5,115.38,67.5,119.38,71.5,115.38,75.5,124.38,71.5" style="stroke:#444444;stroke-width:1;"/></g><!--link REN to NEO--><g id="link_REN_NEO"><path d="M213.92,71.5 C225.6,71.5 231.28,71.5 242.96,71.5 " fill="none" id="REN-to-NEO" style="stroke:#444444;stroke-width:1;"/><polygon fill="#444444" points="248.96,71.5,239.96,67.5,243.96,71.5,239.96,75.5,248.96,71.5" style="stroke:#444444;stroke-width:1;"/></g><!--link NEO to CYPHER--><g id="link_NEO_CYPHER"><path d="M339.14,71.5 C370.03,71.5 405.88,71.5 442.62,71.5 " fill="none" id="NEO-to-CYPHER" style="stroke:#444444;stroke-width:1;"/><polygon fill="#444444" points="448.62,71.5,439.62,67.5,443.62,71.5,439.62,75.5,448.62,71.5" style="stroke:#444444;stroke-width:1;"/><text fill="#000000" font-family="Arial" font-size="13" lengthAdjust="spacing" textLength="73.6963" x="357.5" y="65.6938">all arch pairs</text></g><!--link NEO to TRAV--><g id="link_NEO_TRAV"><path d="M325.98,102.22 C356.37,130.47 397.4245,168.6259 427.7745,196.8259 " fill="none" id="NEO-to-TRAV" style="stroke:#444444;stroke-width:1;"/><polygon fill="#444444" points="432.17,200.91,428.2995,191.8535,428.5071,197.5066,422.8541,197.7142,432.17,200.91" style="stroke:#444444;stroke-width:1;"/><text fill="#000000" font-family="Arial" font-size="13" lengthAdjust="spacing" textLength="94.6689" x="375" y="147.1938">scenario scoped</text></g><!--link TRAV to C2OUT--><g id="link_TRAV_C2OUT"><path d="M555.52,231.5 C615.76,231.5 670,231.5 730.24,231.5 " fill="none" id="TRAV-to-C2OUT" style="stroke:#444444;stroke-width:1;"/><polygon fill="#444444" points="736.24,231.5,727.24,227.5,731.24,231.5,727.24,235.5,736.24,231.5" style="stroke:#444444;stroke-width:1;"/></g><!--link CYPHER to CLANGEXP--><g id="link_CYPHER_CLANGEXP"><path d="M613.09,90.3 C656.34,96.18 693.6639,96.6288 736.9039,89.7788 " fill="none" id="CYPHER-to-CLANGEXP" style="stroke:#444444;stroke-width:1;"/><polygon fill="#444444" points="742.83,88.84,733.315,86.2975,737.8916,89.6223,734.5667,94.1989,742.83,88.84" style="stroke:#444444;stroke-width:1;"/></g><!--link CLANGEXP to SLICE--><g id="link_CLANGEXP_SLICE"><path d="M887.39,71.5 C923.69,71.5 954,71.5 990.3,71.5 " fill="none" id="CLANGEXP-to-SLICE" style="stroke:#444444;stroke-width:1;"/><polygon fill="#444444" points="996.3,71.5,987.3,67.5,991.3,71.5,987.3,75.5,996.3,71.5" style="stroke:#444444;stroke-width:1;"/></g><!--reverse link TAG to C2OUT--><g id="link_TAG_C2OUT"><path d="M973.41,231.5 C930.83,231.5 894.24,231.5 851.66,231.5 " fill="none" id="TAG-backto-C2OUT" style="stroke:#444444;stroke-width:1;"/><polygon fill="#444444" points="979.41,231.5,970.41,227.5,974.41,231.5,970.41,235.5,979.41,231.5" style="stroke:#444444;stroke-width:1;"/></g><!--link SLICE to TAG--><g id="link_SLICE_TAG"><path d="M1040.56,95.81 C1039.99,125.77 1039.1244,171.4711 1038.5544,201.3511 " fill="none" id="SLICE-to-TAG" style="stroke:#444444;stroke-width:1;"/><polygon fill="#444444" points="1038.44,207.35,1042.6109,198.4279,1038.5354,202.3509,1034.6124,198.2753,1038.44,207.35" style="stroke:#444444;stroke-width:1;"/></g><!--link TAG to LLM--><g id="link_TAG_LLM"><path d="M1096.62,231.5 C1108.21,231.5 1113.79,231.5 1125.38,231.5 " fill="none" id="TAG-to-LLM" style="stroke:#444444;stroke-width:1;"/><polygon fill="#444444" points="1131.38,231.5,1122.38,227.5,1126.38,231.5,1122.38,235.5,1131.38,231.5" style="stroke:#444444;stroke-width:1;"/></g><!--link SRC to LLM--><g id="link_SRC_LLM"><path d="M1183,95.81 C1183,123.71 1183,164.46 1183,194.89 " fill="none" id="SRC-to-LLM" style="stroke:#444444;stroke-width:1;"/><polygon fill="#444444" points="1183,200.89,1187,191.89,1183,195.89,1179,191.89,1183,200.89" style="stroke:#444444;stroke-width:1;"/></g><!--link LLM to INTR--><g id="link_LLM_INTR"><path d="M1177.88,262.24 C1168.83,314.85 1151.1984,417.3271 1143.0084,464.8771 " fill="none" id="LLM-to-INTR" style="stroke:#444444;stroke-width:1;"/><polygon fill="#444444" points="1141.99,470.79,1147.4596,462.5996,1142.8387,465.8626,1139.5757,461.2416,1141.99,470.79" style="stroke:#444444;stroke-width:1;"/></g><!--link LLM to SEQ--><g id="link_LLM_SEQ"><path d="M1201.03,262.24 C1212.86,281.76 1224.9913,301.7782 1235.9013,319.7882 " fill="none" id="LLM-to-SEQ" style="stroke:#444444;stroke-width:1;"/><polygon fill="#444444" points="1239.01,324.92,1237.7681,315.1498,1236.4194,320.6435,1230.9257,319.2947,1239.01,324.92" style="stroke:#444444;stroke-width:1;"/></g><!--link INTR to GENSYSML--><g id="link_INTR_GENSYSML"><path d="M1191.53,495 C1203.09,495 1208.65,495 1220.22,495 " fill="none" id="INTR-to-GENSYSML" style="stroke:#444444;stroke-width:1;"/><polygon fill="#444444" points="1226.22,495,1217.22,491,1221.22,495,1217.22,499,1226.22,495" style="stroke:#444444;stroke-width:1;"/></g><!--link SEQ to GENSYSML--><g id="link_SEQ_GENSYSML"><path d="M1256.21,373.14 C1259.95,400.01 1265.2466,438.1268 1268.9666,464.9768 " fill="none" id="SEQ-to-GENSYSML" style="stroke:#444444;stroke-width:1;"/><polygon fill="#444444" points="1269.79,470.92,1272.517,461.4562,1269.1038,465.9673,1264.5927,462.5541,1269.79,470.92" style="stroke:#444444;stroke-width:1;"/></g><!--link GENSYSML to ISYSML--><g id="link_GENSYSML_ISYSML"><path d="M1258.58,519.12 C1247.04,537.61 1234.1048,558.3388 1222.5748,576.8288 " fill="none" id="GENSYSML-to-ISYSML" style="stroke:#444444;stroke-width:1;"/><polygon fill="#444444" points="1219.4,581.92,1227.5563,576.3997,1222.0457,577.6773,1220.768,572.1666,1219.4,581.92" style="stroke:#444444;stroke-width:1;"/></g><!--link GENSYSML to SSYSML--><g id="link_GENSYSML_SSYSML"><path d="M1319.8,495 C1340.83,495 1355.86,495 1376.89,495 " fill="none" id="GENSYSML-to-SSYSML" style="stroke:#444444;stroke-width:1;"/><polygon fill="#444444" points="1382.89,495,1373.89,491,1377.89,495,1373.89,499,1382.89,495" style="stroke:#444444;stroke-width:1;"/></g><!--link GENSYSML to VSYSML--><g id="link_GENSYSML_VSYSML"><path d="M1287.21,519.12 C1298.58,537.61 1311.3091,558.3178 1322.6691,576.8078 " fill="none" id="GENSYSML-to-VSYSML" style="stroke:#444444;stroke-width:1;"/><polygon fill="#444444" points="1325.81,581.92,1324.5068,572.1577,1323.1926,577.6598,1317.6905,576.3456,1325.81,581.92" style="stroke:#444444;stroke-width:1;"/></g><!--SRC=[pLPjQzim4FxkNt5u7_PIKjQqJTCm2gvhPu4qpUAsh50OggqwsXp9avHssHZiH-mNxfTCabzZ9uF1O3Kn97VFlUYvErt49q9JnD42xb3uAUPiIIEN9Oo3v8WAfS9KMg94HVWUBHFfCoedQ871uGGbDRt3ENlC73mxC4zDoN4e4OqJhCq3yXN3NjVQf7_pHZAMd9p0DmlKSzf8xTbPptFyVgPZFC8ybtUF-wzFZurSXyYbUyvXzwXdVTyS2N59xb4ejqVpptpFzzhH-kOfemLobM0W4YKat1RiynBprHyYUVwnTzIEvEyVkuggnhcEpdgzr_rjeSHAB99_VIXBiXGaWpic9LFTG7H0mgXbbP71TdTsGB0b3x4DQ_mY0UvqseI6BC8WA4bJB4NR8fYvblKSVltyeJumdIEXscO0CqmH4GBH4EUw9_MnKaKuYjKHyupXru-V44WaIGWEHSbA404lQgTuQHVrpqjMewa6qmJbmw78cNaJWusGH7SwZZt1xE3ZBJManXobSrlZ9jv5qwUxIkUO3o1Es1rAb0LdGdH2jaWPLJCFRfgwA4bCHOgsrGMycRxrPjkSYL1boWdhY92bEBgbXPTNiBUxsuCvImNSSzKwAWHVDNnVpfnhrMGDtpbfX4hCaUcs3LtYTY-kBbjzqXt0S4aY7C682icN2nKLQG_m_pkYQpfYItelmaITleE_fBejlBxVzm_RRP4RatNZMxfcNMyNT-nCXjxxQPlat9Mwz3TDRJ0UkLwBtVq1ZCVd4Aoed6FTpazw0lSDtsi9s-OQxFhzDhLNL9S1KKK9YcD2utKYBvrXqq9x5eLdLGFdwv9Zk4WnTKQDCYYeiVvUlmhh_RtxKJ3QBiDeSZchcmYiXaVT2LlWWVUkLRE3WJg-E1_3GnU6cAg8_saSjjRf8BifYoHlQPMc7eLJ_z0_RTShnlI3sNYxwMgTxA4t2Mw2yx7r9xwDgROhjgPcEpFRnFScUD22Fn3ykDdrTOQjYcF-DecdkCZ-hfPglKE7atWkEoTcEQct4kWjfDvAa2qJ682jTWGW7iuXHOGBEuD5x94gb5uB6bCi5yYMYsqPHUKiMm6vpqfSt7d5bqgLNsl643e9ljT2FTf6KU6qIBsLG0-m-bzIPgX_w_al0MPIZIH7c5dKqWfJDgRIbRXIM7mfDQEcl3p55eEyoNu3]--></g></svg>