<?xml version="1.0" encoding="utf-8"?>
<!-- Generator: Adobe Illustrator 28.1.0, SVG Export Plug-In . SVG Version: 6.00 Build 0)  -->
<svg version="1.1" id="Laag_1" xmlns="http://www.w3.org/2000/svg" xmlns:xlink="http://www.w3.org/1999/xlink" x="0px" y="0px"
	 viewBox="0 0 282.3 108.7" style="enable-background:new 0 0 282.3 108.7;" xml:space="preserve">
<style type="text/css">
	.st0{fill:#00829D;}
	.st1{fill:#671760;}
	.st2{fill:#1D1D1B;}
</style>
<path class="st0" d="M179.1,22.1h38.8v11.6h-26.2v10.7h20v11.6h-20v11.6h26.3v11.6h-38.9V22.1z"/>
<path class="st0" d="M255.1,36.1c-1-1.3-2.4-2.2-4.2-2.9c-1.8-0.6-3.4-0.9-5-0.9c-0.9,0-1.9,0.1-2.8,0.3c-1,0.2-1.9,0.6-2.7,1
	c-0.9,0.5-1.6,1.1-2.1,1.8c-0.5,0.8-0.8,1.7-0.8,2.7c0,1.7,0.6,3,1.9,4c1.3,0.9,2.9,1.7,4.9,2.3c2,0.6,4.1,1.3,6.3,1.9
	c2.3,0.6,4.4,1.6,6.3,2.7c2,1.2,3.6,2.8,4.9,4.8c1.3,2,1.9,4.7,1.9,8c0,3.2-0.6,5.9-1.8,8.3c-1.2,2.4-2.8,4.3-4.8,5.9
	c-2,1.6-4.4,2.7-7,3.5c-2.7,0.8-5.5,1.1-8.4,1.1c-3.7,0-7.2-0.6-10.3-1.7c-3.2-1.1-6.1-3-8.9-5.5l9-9.9c1.3,1.7,2.9,3.1,4.9,4
	s4,1.4,6.1,1.4c1,0,2.1-0.1,3.1-0.4c1-0.2,2-0.6,2.8-1.1c0.8-0.5,1.5-1.1,2-1.9c0.5-0.8,0.8-1.6,0.8-2.7c0-1.7-0.7-3.1-2-4.1
	c-1.3-1-3-1.8-5-2.5c-2-0.7-4.1-1.4-6.5-2.1c-2.3-0.7-4.5-1.6-6.5-2.8c-2-1.2-3.6-2.7-5-4.7c-1.3-1.9-2-4.5-2-7.7
	c0-3.1,0.6-5.8,1.8-8.1c1.2-2.3,2.8-4.3,4.8-5.8c2-1.6,4.3-2.7,7-3.5c2.6-0.8,5.4-1.2,8.2-1.2c3.2,0,6.4,0.5,9.4,1.4
	c3,0.9,5.7,2.5,8.2,4.6L255.1,36.1z"/>
<path class="st0" d="M269.7,22.1h12.6v57.2h-12.6V22.1z"/>
<g>
	<path class="st1" d="M134.7,11.7h83.1V0h-79.2c-2.2,0-3.9,1.8-3.9,3.9V11.7z"/>
</g>
<g>
	<path class="st1" d="M184,92.3c0,0.8-0.3,1.4-0.8,1.8c-0.5,0.4-1.3,0.6-2.3,0.6H180v3.1h-0.9V90h2C183,90,184,90.8,184,92.3z
		 M180,93.9h0.8c0.8,0,1.4-0.1,1.7-0.4c0.4-0.3,0.5-0.7,0.5-1.2c0-0.5-0.2-0.9-0.5-1.1c-0.3-0.3-0.9-0.4-1.6-0.4h-1V93.9z"/>
	<path class="st1" d="M190.5,94.8c0,0.9-0.2,1.7-0.7,2.2c-0.5,0.5-1.1,0.8-2,0.8c-0.5,0-1-0.1-1.4-0.4c-0.4-0.2-0.7-0.6-0.9-1.1
		s-0.3-1-0.3-1.6c0-0.9,0.2-1.7,0.7-2.2c0.5-0.5,1.1-0.8,2-0.8c0.8,0,1.5,0.3,1.9,0.8C190.3,93.2,190.5,93.9,190.5,94.8z
		 M186.1,94.8c0,0.7,0.1,1.3,0.4,1.7c0.3,0.4,0.7,0.6,1.3,0.6c0.6,0,1-0.2,1.3-0.6c0.3-0.4,0.4-1,0.4-1.7c0-0.7-0.1-1.3-0.4-1.7
		c-0.3-0.4-0.7-0.6-1.3-0.6c-0.6,0-1,0.2-1.3,0.6C186.2,93.5,186.1,94.1,186.1,94.8z"/>
	<path class="st1" d="M196.8,97.8l-1.1-3.4c-0.1-0.2-0.2-0.7-0.4-1.4h0c-0.1,0.6-0.3,1.1-0.4,1.4l-1.1,3.4h-1l-1.6-5.8h0.9
		c0.4,1.5,0.7,2.6,0.9,3.3c0.2,0.8,0.3,1.3,0.3,1.5h0c0-0.2,0.1-0.5,0.2-0.8c0.1-0.3,0.2-0.6,0.2-0.8l1.1-3.3h1l1,3.3
		c0.2,0.6,0.3,1.1,0.4,1.5h0c0-0.1,0.1-0.3,0.1-0.6c0.1-0.3,0.4-1.7,1.1-4.3h0.9l-1.6,5.8H196.8z"/>
	<path class="st1" d="M203,97.9c-0.9,0-1.5-0.3-2-0.8c-0.5-0.5-0.7-1.3-0.7-2.2c0-0.9,0.2-1.7,0.7-2.2c0.5-0.6,1.1-0.8,1.9-0.8
		c0.7,0,1.3,0.2,1.7,0.7c0.4,0.5,0.6,1.1,0.6,1.9V95h-4c0,0.7,0.2,1.2,0.5,1.6c0.3,0.4,0.8,0.5,1.4,0.5c0.6,0,1.2-0.1,1.9-0.4v0.8
		c-0.3,0.1-0.6,0.2-0.9,0.3C203.7,97.8,203.4,97.9,203,97.9z M202.7,92.6c-0.5,0-0.8,0.2-1.1,0.5c-0.3,0.3-0.4,0.7-0.5,1.3h3
		c0-0.6-0.1-1-0.4-1.3C203.5,92.7,203.2,92.6,202.7,92.6z"/>
	<path class="st1" d="M209.3,91.8c0.3,0,0.5,0,0.7,0.1l-0.1,0.8c-0.2-0.1-0.5-0.1-0.6-0.1c-0.5,0-0.9,0.2-1.2,0.6
		c-0.3,0.4-0.5,0.9-0.5,1.4v3.1h-0.9v-5.8h0.7l0.1,1.1h0c0.2-0.4,0.5-0.7,0.8-0.9C208.6,91.9,208.9,91.8,209.3,91.8z"/>
	<path class="st1" d="M213.5,97.9c-0.9,0-1.5-0.3-2-0.8c-0.5-0.5-0.7-1.3-0.7-2.2c0-0.9,0.2-1.7,0.7-2.2c0.5-0.6,1.1-0.8,1.9-0.8
		c0.7,0,1.3,0.2,1.7,0.7c0.4,0.5,0.6,1.1,0.6,1.9V95h-4c0,0.7,0.2,1.2,0.5,1.6c0.3,0.4,0.8,0.5,1.4,0.5c0.6,0,1.2-0.1,1.9-0.4v0.8
		c-0.3,0.1-0.6,0.2-0.9,0.3C214.2,97.8,213.9,97.9,213.5,97.9z M213.3,92.6c-0.5,0-0.8,0.2-1.1,0.5c-0.3,0.3-0.4,0.7-0.5,1.3h3
		c0-0.6-0.1-1-0.4-1.3C214.1,92.7,213.7,92.6,213.3,92.6z"/>
	<path class="st1" d="M221.1,97L221.1,97c-0.5,0.6-1.1,0.9-1.9,0.9c-0.8,0-1.4-0.3-1.8-0.8c-0.4-0.5-0.6-1.3-0.6-2.2
		c0-1,0.2-1.7,0.6-2.2c0.4-0.5,1-0.8,1.8-0.8c0.8,0,1.4,0.3,1.8,0.9h0.1l0-0.4l0-0.4v-2.4h0.9v8.3h-0.7L221.1,97z M219.3,97.1
		c0.6,0,1-0.2,1.3-0.5s0.4-0.9,0.4-1.6v-0.2c0-0.8-0.1-1.4-0.4-1.8c-0.3-0.4-0.7-0.5-1.3-0.5c-0.5,0-0.9,0.2-1.2,0.6
		c-0.3,0.4-0.4,1-0.4,1.7c0,0.7,0.1,1.3,0.4,1.7C218.4,96.9,218.8,97.1,219.3,97.1z"/>
	<path class="st1" d="M229.3,91.8c0.8,0,1.4,0.3,1.8,0.8c0.4,0.5,0.6,1.3,0.6,2.2c0,1-0.2,1.7-0.6,2.2c-0.4,0.5-1,0.8-1.8,0.8
		c-0.4,0-0.7-0.1-1-0.2c-0.3-0.1-0.6-0.4-0.8-0.6h-0.1l-0.2,0.7h-0.6v-8.3h0.9v2c0,0.4,0,0.9,0,1.2h0
		C227.9,92.1,228.5,91.8,229.3,91.8z M229.2,92.6c-0.6,0-1,0.2-1.3,0.5c-0.3,0.3-0.4,0.9-0.4,1.7c0,0.8,0.1,1.4,0.4,1.8
		c0.3,0.4,0.7,0.5,1.3,0.5c0.5,0,0.9-0.2,1.2-0.6c0.3-0.4,0.4-1,0.4-1.7c0-0.8-0.1-1.3-0.4-1.7C230.2,92.8,229.8,92.6,229.2,92.6z"
		/>
	<path class="st1" d="M232.4,91.9h0.9l1.3,3.3c0.3,0.8,0.5,1.3,0.5,1.6h0c0-0.2,0.1-0.5,0.3-0.9c0.1-0.4,0.6-1.8,1.4-4h0.9l-2.5,6.6
		c-0.2,0.7-0.5,1.1-0.9,1.4c-0.3,0.3-0.7,0.4-1.2,0.4c-0.3,0-0.5,0-0.8-0.1v-0.7c0.2,0,0.4,0.1,0.7,0.1c0.6,0,1-0.3,1.3-1l0.3-0.8
		L232.4,91.9z"/>
	<path class="st1" d="M241.5,90.4c0-0.2,0-0.3,0.1-0.4c0.1-0.1,0.2-0.1,0.4-0.1c0.1,0,0.3,0,0.4,0.1c0.1,0.1,0.2,0.2,0.2,0.4
		c0,0.2-0.1,0.3-0.2,0.4c-0.1,0.1-0.2,0.1-0.4,0.1c-0.1,0-0.3,0-0.4-0.1C241.6,90.7,241.5,90.6,241.5,90.4z M242.5,97.8h-0.9v-5.8
		h0.9V97.8z"/>
	<path class="st1" d="M248.3,97.8V94c0-0.5-0.1-0.8-0.3-1.1s-0.6-0.4-1-0.4c-0.6,0-1.1,0.2-1.3,0.5c-0.3,0.3-0.4,0.9-0.4,1.6v3.1
		h-0.9v-5.8h0.7l0.1,0.8h0c0.2-0.3,0.4-0.5,0.8-0.7c0.3-0.2,0.7-0.2,1.1-0.2c0.7,0,1.2,0.2,1.6,0.5c0.4,0.3,0.5,0.9,0.5,1.6v3.8
		H248.3z"/>
	<path class="st1" d="M255,97L255,97c-0.5,0.6-1.1,0.9-1.9,0.9c-0.8,0-1.4-0.3-1.8-0.8c-0.4-0.5-0.6-1.3-0.6-2.2
		c0-1,0.2-1.7,0.6-2.2c0.4-0.5,1-0.8,1.8-0.8c0.8,0,1.4,0.3,1.8,0.9h0.1l0-0.4l0-0.4v-2.4h0.9v8.3h-0.7L255,97z M253.2,97.1
		c0.6,0,1-0.2,1.3-0.5s0.4-0.9,0.4-1.6v-0.2c0-0.8-0.1-1.4-0.4-1.8c-0.3-0.4-0.7-0.5-1.3-0.5c-0.5,0-0.9,0.2-1.2,0.6
		c-0.3,0.4-0.4,1-0.4,1.7c0,0.7,0.1,1.3,0.4,1.7C252.3,96.9,252.7,97.1,253.2,97.1z"/>
	<path class="st1" d="M258.5,91.9v3.8c0,0.5,0.1,0.8,0.3,1.1c0.2,0.2,0.6,0.4,1,0.4c0.6,0,1.1-0.2,1.3-0.5c0.3-0.3,0.4-0.9,0.4-1.6
		v-3.1h0.9v5.8h-0.7l-0.1-0.8h0c-0.2,0.3-0.4,0.5-0.8,0.7c-0.3,0.2-0.7,0.2-1.1,0.2c-0.7,0-1.2-0.2-1.6-0.5
		c-0.4-0.3-0.5-0.9-0.5-1.6v-3.8H258.5z"/>
	<path class="st1" d="M268.1,96.2c0,0.5-0.2,1-0.6,1.3c-0.4,0.3-1,0.4-1.7,0.4c-0.8,0-1.4-0.1-1.8-0.4v-0.8c0.3,0.1,0.6,0.3,0.9,0.3
		c0.3,0.1,0.6,0.1,0.9,0.1c0.5,0,0.8-0.1,1.1-0.2c0.2-0.1,0.4-0.4,0.4-0.7c0-0.2-0.1-0.4-0.3-0.6c-0.2-0.2-0.6-0.4-1.1-0.6
		c-0.5-0.2-0.9-0.4-1.2-0.5c-0.2-0.2-0.4-0.3-0.5-0.5c-0.1-0.2-0.2-0.4-0.2-0.7c0-0.5,0.2-0.8,0.6-1.1c0.4-0.3,0.9-0.4,1.6-0.4
		c0.6,0,1.2,0.1,1.8,0.4l-0.3,0.7c-0.6-0.2-1.1-0.4-1.6-0.4c-0.4,0-0.7,0.1-0.9,0.2c-0.2,0.1-0.3,0.3-0.3,0.5c0,0.2,0,0.3,0.1,0.4
		c0.1,0.1,0.2,0.2,0.4,0.3c0.2,0.1,0.5,0.2,1,0.4c0.7,0.3,1.2,0.5,1.4,0.8C268,95.5,268.1,95.8,268.1,96.2z"/>
	<path class="st1" d="M271.4,97.1c0.2,0,0.3,0,0.5,0c0.1,0,0.3,0,0.3-0.1v0.7c-0.1,0-0.2,0.1-0.4,0.1c-0.2,0-0.4,0-0.5,0
		c-1.1,0-1.7-0.6-1.7-1.8v-3.5h-0.8v-0.4l0.8-0.4l0.4-1.2h0.5v1.3h1.7v0.7h-1.7v3.4c0,0.4,0.1,0.6,0.2,0.8
		C270.9,97,271.1,97.1,271.4,97.1z"/>
	<path class="st1" d="M276,91.8c0.3,0,0.5,0,0.7,0.1l-0.1,0.8c-0.2-0.1-0.5-0.1-0.6-0.1c-0.5,0-0.9,0.2-1.2,0.6
		c-0.3,0.4-0.5,0.9-0.5,1.4v3.1h-0.9v-5.8h0.7l0.1,1.1h0c0.2-0.4,0.5-0.7,0.8-0.9C275.3,91.9,275.6,91.8,276,91.8z"/>
	<path class="st1" d="M276.9,91.9h0.9l1.3,3.3c0.3,0.8,0.5,1.3,0.5,1.6h0c0-0.2,0.1-0.5,0.3-0.9c0.1-0.4,0.6-1.8,1.4-4h0.9l-2.5,6.6
		c-0.2,0.7-0.5,1.1-0.9,1.4c-0.3,0.3-0.7,0.4-1.2,0.4c-0.3,0-0.5,0-0.8-0.1v-0.7c0.2,0,0.4,0.1,0.7,0.1c0.6,0,1-0.3,1.3-1l0.3-0.8
		L276.9,91.9z"/>
	<path class="st1" d="M182.5,108.6l-0.2-0.8h0c-0.3,0.4-0.6,0.6-0.9,0.7c-0.3,0.1-0.6,0.2-1.1,0.2c-0.6,0-1-0.1-1.4-0.4
		c-0.3-0.3-0.5-0.7-0.5-1.3c0-1.2,0.9-1.8,2.8-1.8l1,0v-0.4c0-0.5-0.1-0.8-0.3-1c-0.2-0.2-0.5-0.3-0.9-0.3c-0.5,0-1,0.1-1.6,0.4
		l-0.3-0.7c0.3-0.2,0.6-0.3,0.9-0.4c0.3-0.1,0.7-0.1,1-0.1c0.7,0,1.2,0.2,1.5,0.5c0.3,0.3,0.5,0.8,0.5,1.5v4H182.5z M180.5,108
		c0.5,0,1-0.2,1.3-0.5s0.5-0.7,0.5-1.3v-0.5l-0.9,0c-0.7,0-1.2,0.1-1.5,0.3c-0.3,0.2-0.5,0.5-0.5,0.9c0,0.3,0.1,0.6,0.3,0.7
		S180.2,108,180.5,108z"/>
	<path class="st1" d="M189,108.6v-3.8c0-0.5-0.1-0.8-0.3-1.1c-0.2-0.2-0.6-0.4-1-0.4c-0.6,0-1.1,0.2-1.3,0.5
		c-0.3,0.3-0.4,0.9-0.4,1.6v3.1H185v-5.8h0.7l0.1,0.8h0c0.2-0.3,0.4-0.5,0.8-0.7c0.3-0.2,0.7-0.2,1.1-0.2c0.7,0,1.2,0.2,1.6,0.5
		c0.4,0.3,0.5,0.9,0.5,1.6v3.8H189z"/>
	<path class="st1" d="M195.6,107.8L195.6,107.8c-0.5,0.6-1.1,0.9-1.9,0.9c-0.8,0-1.4-0.3-1.8-0.8c-0.4-0.5-0.6-1.3-0.6-2.2
		c0-1,0.2-1.7,0.6-2.2c0.4-0.5,1-0.8,1.8-0.8c0.8,0,1.4,0.3,1.8,0.9h0.1l0-0.4l0-0.4v-2.4h0.9v8.3h-0.7L195.6,107.8z M193.9,108
		c0.6,0,1-0.2,1.3-0.5c0.3-0.3,0.4-0.9,0.4-1.6v-0.2c0-0.8-0.1-1.4-0.4-1.8c-0.3-0.4-0.7-0.5-1.3-0.5c-0.5,0-0.9,0.2-1.2,0.6
		c-0.3,0.4-0.4,1-0.4,1.7c0,0.7,0.1,1.3,0.4,1.7C192.9,107.8,193.3,108,193.9,108z"/>
	<path class="st1" d="M204.7,108.6l-0.2-0.8h0c-0.3,0.4-0.6,0.6-0.9,0.7c-0.3,0.1-0.6,0.2-1.1,0.2c-0.6,0-1-0.1-1.4-0.4
		c-0.3-0.3-0.5-0.7-0.5-1.3c0-1.2,0.9-1.8,2.8-1.8l1,0v-0.4c0-0.5-0.1-0.8-0.3-1c-0.2-0.2-0.5-0.3-0.9-0.3c-0.5,0-1,0.1-1.6,0.4
		l-0.3-0.7c0.3-0.2,0.6-0.3,0.9-0.4c0.3-0.1,0.7-0.1,1-0.1c0.7,0,1.2,0.2,1.5,0.5c0.3,0.3,0.5,0.8,0.5,1.5v4H204.7z M202.7,108
		c0.5,0,1-0.2,1.3-0.5c0.3-0.3,0.5-0.7,0.5-1.3v-0.5l-0.9,0c-0.7,0-1.2,0.1-1.5,0.3c-0.3,0.2-0.5,0.5-0.5,0.9c0,0.3,0.1,0.6,0.3,0.7
		S202.4,108,202.7,108z"/>
	<path class="st1" d="M209.5,108.7c-0.8,0-1.5-0.3-2-0.8c-0.5-0.5-0.7-1.3-0.7-2.2c0-1,0.2-1.7,0.7-2.3c0.5-0.5,1.1-0.8,2-0.8
		c0.3,0,0.6,0,0.8,0.1c0.3,0.1,0.5,0.1,0.7,0.2l-0.3,0.7c-0.2-0.1-0.4-0.1-0.6-0.2c-0.2-0.1-0.4-0.1-0.6-0.1c-1.2,0-1.8,0.8-1.8,2.3
		c0,0.7,0.1,1.3,0.4,1.6c0.3,0.4,0.7,0.6,1.3,0.6c0.5,0,1-0.1,1.5-0.3v0.8C210.6,108.6,210.1,108.7,209.5,108.7z"/>
	<path class="st1" d="M215.9,108.6l-0.2-0.8h0c-0.3,0.4-0.6,0.6-0.9,0.7c-0.3,0.1-0.6,0.2-1.1,0.2c-0.6,0-1-0.1-1.4-0.4
		c-0.3-0.3-0.5-0.7-0.5-1.3c0-1.2,0.9-1.8,2.8-1.8l1,0v-0.4c0-0.5-0.1-0.8-0.3-1c-0.2-0.2-0.5-0.3-0.9-0.3c-0.5,0-1,0.1-1.6,0.4
		l-0.3-0.7c0.3-0.2,0.6-0.3,0.9-0.4c0.3-0.1,0.7-0.1,1-0.1c0.7,0,1.2,0.2,1.5,0.5c0.3,0.3,0.5,0.8,0.5,1.5v4H215.9z M213.9,108
		c0.5,0,1-0.2,1.3-0.5s0.5-0.7,0.5-1.3v-0.5l-0.9,0c-0.7,0-1.2,0.1-1.5,0.3c-0.3,0.2-0.5,0.5-0.5,0.9c0,0.3,0.1,0.6,0.3,0.7
		S213.6,108,213.9,108z"/>
	<path class="st1" d="M222.4,107.8L222.4,107.8c-0.5,0.6-1.1,0.9-1.9,0.9c-0.8,0-1.4-0.3-1.8-0.8c-0.4-0.5-0.6-1.3-0.6-2.2
		c0-1,0.2-1.7,0.6-2.2c0.4-0.5,1-0.8,1.8-0.8c0.8,0,1.4,0.3,1.8,0.9h0.1l0-0.4l0-0.4v-2.4h0.9v8.3h-0.7L222.4,107.8z M220.6,108
		c0.6,0,1-0.2,1.3-0.5c0.3-0.3,0.4-0.9,0.4-1.6v-0.2c0-0.8-0.1-1.4-0.4-1.8c-0.3-0.4-0.7-0.5-1.3-0.5c-0.5,0-0.9,0.2-1.2,0.6
		c-0.3,0.4-0.4,1-0.4,1.7c0,0.7,0.1,1.3,0.4,1.7C219.7,107.8,220.1,108,220.6,108z"/>
	<path class="st1" d="M227.5,108.7c-0.9,0-1.5-0.3-2-0.8c-0.5-0.5-0.7-1.3-0.7-2.2c0-0.9,0.2-1.7,0.7-2.2c0.5-0.6,1.1-0.8,1.9-0.8
		c0.7,0,1.3,0.2,1.7,0.7c0.4,0.5,0.6,1.1,0.6,1.9v0.6h-4c0,0.7,0.2,1.2,0.5,1.6c0.3,0.4,0.8,0.5,1.4,0.5c0.6,0,1.2-0.1,1.9-0.4v0.8
		c-0.3,0.1-0.6,0.2-0.9,0.3C228.2,108.7,227.9,108.7,227.5,108.7z M227.3,103.4c-0.5,0-0.8,0.2-1.1,0.5c-0.3,0.3-0.4,0.7-0.5,1.3h3
		c0-0.6-0.1-1-0.4-1.3C228.1,103.6,227.7,103.4,227.3,103.4z"/>
	<path class="st1" d="M238.6,108.6v-3.8c0-0.5-0.1-0.8-0.3-1c-0.2-0.2-0.5-0.3-0.9-0.3c-0.5,0-1,0.2-1.2,0.5
		c-0.3,0.3-0.4,0.8-0.4,1.5v3.2h-0.9v-3.8c0-0.5-0.1-0.8-0.3-1c-0.2-0.2-0.5-0.3-0.9-0.3c-0.6,0-1,0.2-1.2,0.5
		c-0.3,0.3-0.4,0.9-0.4,1.6v3.1h-0.9v-5.8h0.7l0.1,0.8h0c0.2-0.3,0.4-0.5,0.7-0.7c0.3-0.2,0.6-0.2,1-0.2c0.9,0,1.5,0.3,1.8,1h0
		c0.2-0.3,0.4-0.5,0.8-0.7c0.3-0.2,0.7-0.3,1.1-0.3c0.7,0,1.2,0.2,1.5,0.5s0.5,0.9,0.5,1.6v3.8H238.6z"/>
	<path class="st1" d="M241.2,101.2c0-0.2,0-0.3,0.1-0.4c0.1-0.1,0.2-0.1,0.4-0.1c0.1,0,0.3,0,0.4,0.1c0.1,0.1,0.2,0.2,0.2,0.4
		s-0.1,0.3-0.2,0.4c-0.1,0.1-0.2,0.1-0.4,0.1c-0.1,0-0.3,0-0.4-0.1C241.2,101.6,241.2,101.4,241.2,101.2z M242.1,108.6h-0.9v-5.8
		h0.9V108.6z"/>
	<path class="st1" d="M247.6,108.6l-0.2-0.8h0c-0.3,0.4-0.6,0.6-0.9,0.7c-0.3,0.1-0.6,0.2-1.1,0.2c-0.6,0-1-0.1-1.4-0.4
		c-0.3-0.3-0.5-0.7-0.5-1.3c0-1.2,0.9-1.8,2.8-1.8l1,0v-0.4c0-0.5-0.1-0.8-0.3-1c-0.2-0.2-0.5-0.3-0.9-0.3c-0.5,0-1,0.1-1.6,0.4
		l-0.3-0.7c0.3-0.2,0.6-0.3,0.9-0.4c0.3-0.1,0.7-0.1,1-0.1c0.7,0,1.2,0.2,1.5,0.5c0.3,0.3,0.5,0.8,0.5,1.5v4H247.6z M245.6,108
		c0.5,0,1-0.2,1.3-0.5s0.5-0.7,0.5-1.3v-0.5l-0.9,0c-0.7,0-1.2,0.1-1.5,0.3c-0.3,0.2-0.5,0.5-0.5,0.9c0,0.3,0.1,0.6,0.3,0.7
		S245.3,108,245.6,108z"/>
</g>
<g>
	<path class="st2" d="M134.8,41.9c-4.7,0-8.6,3.9-8.6,8.7c0,4.9,3.8,8.9,8.5,8.9c4.7,0,8.6-4,8.6-8.8
		C143.3,45.9,139.5,41.9,134.8,41.9 M85.9,44.1c0-0.4,0-0.7,0-1.1c0-6.7,0-13.4,0-20.1c0-0.7,0.2-0.9,0.9-0.9c4.6,0,9.2,0,13.9,0
		c0.5,0,1,0,1.5,0.1c2.7,0.5,4.2,2.2,4.2,5.2c0.1,3.7,0,7.4,0,11.1c0,2.1,0,4.1,0.1,6.2c0.2-0.7,0.3-1.4,0.5-2.1
		c2.9-11.4,12.2-19.8,23.5-21.3c7.8-1,15.1,0.4,21.6,5.3c6.1,4.5,9.6,10.8,10.9,18.4c1.1,6.6,0.4,13.1-2.5,19.1
		c-4.4,8.9-11.4,14.2-20.9,15.8c-7.3,1.2-14.3,0-20.6-4c-6.6-4.2-10.5-10.4-12.2-18.2c0-0.2-0.1-0.4-0.1-0.6c0-0.1-0.1-0.1-0.2-0.3
		v22.5h-0.9c-4.2,0-8.4,0-12.6,0c-3.9,0-7-1.4-9.3-4.6c-3.5-4.8-6.9-9.6-10.3-14.5c-0.7-1-1.4-2-2.2-2.9v22h-0.9
		c-4.6,0-9.2,0-13.9,0c-0.4,0-0.8,0-1.2-0.1c-3-0.5-4.5-2.2-4.6-5.4c-0.1-5.5,0-10.9-0.1-16.4c0-4.3,0-8.6,0-12.9v-1H37.3v35.8h-0.8
		c-5,0-10,0-15,0c-0.5,0-0.9,0-1.4-0.1c-3-0.5-4.4-2.1-4.6-5.5c0-0.5,0-1,0-1.5c0-9.3,0-18.6,0-27.8v-1h-1.8c-2.7,0-5.3,0-8,0
		c-0.6,0-1.2,0-1.8-0.2c-2.5-0.5-3.9-2.1-3.9-5C0,33,0,27.7,0,22.4c0-0.1,0-0.1,0.1-0.3c0.3,0,0.6,0,0.8,0c21.1,0,42.2,0,63.3,0
		c3.8,0,6.8,1.6,9.1,4.7c3.8,5.3,7.6,10.6,11.4,15.9c0.4,0.5,0.7,1,1.1,1.5C85.8,44.2,85.9,44.1,85.9,44.1"/>
</g>
</svg>
